<svg width="auto" height="auto" viewBox="0 0 1980 168" fill="none" xmlns="http://www.w3.org/2000/svg">
<path d="M30.2133 131.351C22.3762 131.351 14.3047 130.46 6.97499 127.337C4.83268 126.258 3.04039 124.594 1.80634 122.537C0.572292 120.48 -0.0528625 118.115 0.00350125 115.717C0.306857 111.067 1.3776 106.498 3.17236 102.197L5.28493 96.0706C6.90881 91.4467 9.10915 87.046 11.8339 82.9726C14.2984 79.4151 17.461 76.3962 21.1292 74.0998C25.184 71.4984 29.7032 69.7051 34.4384 68.8184C40.6093 67.4485 46.9201 66.8103 53.2403 66.917H152.109L154.644 60.1568C154.644 60.1568 154.644 60.1568 154.644 58.8893C154.644 57.6217 154.644 58.8893 154.644 57.6217C154.596 57.0083 154.371 56.4219 153.996 55.9343C153.621 55.4466 153.112 55.0786 152.531 54.8754C150.077 54.5497 147.591 54.5497 145.137 54.8754H49.649L56.6205 36.0735H213.162C221.935 36.0734 231.075 37.0638 239.358 40.5099C242.044 41.8222 244.269 43.9176 245.739 46.5199C247.21 49.1221 247.858 52.1089 247.597 55.0866C247.397 60.8868 246.181 66.6069 244.006 71.9872L222.88 132.196L30.2133 131.351ZM145.349 85.0852H116.195C112.578 85.1687 109.003 85.8836 105.632 87.1977C104.265 87.8677 103.052 88.8147 102.07 89.9784C101.088 91.1422 100.359 92.4974 99.9282 93.958L96.1256 104.31C95.9237 105.427 95.9237 106.572 96.1256 107.69C96.0665 108.134 96.0964 108.586 96.2136 109.019C96.3308 109.451 96.5329 109.856 96.8081 110.21C97.0834 110.564 97.4263 110.86 97.8168 111.08C98.2074 111.3 98.6379 111.44 99.0832 111.492C101.22 112.089 103.416 112.443 105.632 112.549H126.758C128.367 112.813 130.008 112.813 131.617 112.549C132.79 112.239 133.875 111.66 134.786 110.859C136.088 109.573 137.035 107.972 137.532 106.211L139.856 100.296L145.349 85.0852Z" fill="white"/>
<path d="M274.618 131.35C266.231 131.35 257.325 130.977 249.479 127.336C247.181 125.864 245.296 123.831 244.002 121.428C242.709 119.025 242.049 116.333 242.085 113.604C242.127 109.845 242.843 106.125 244.197 102.619L257.506 66.0711C260.476 56.6418 266.495 48.467 274.618 42.8328C285.204 36.7919 297.283 34.5937 309.476 34.5937H406.02L418.696 0.581299H511.86L464.75 131.35H274.618ZM396.725 61.4234C396.652 60.8624 396.652 60.2943 396.725 59.7333C396.812 59.2442 396.812 58.7436 396.725 58.2545C396.725 55.5082 394.401 54.0294 389.331 54.0294H363.769C361.199 53.9404 358.651 54.5229 356.375 55.7194C354.267 56.987 352.748 59.038 352.15 61.4234L336.094 106.21C335.912 106.831 335.912 107.491 336.094 108.111V109.59C336.094 112.336 338.629 113.604 343.277 113.604H369.473C372.11 113.691 374.726 113.11 377.078 111.914C378.747 110.424 379.863 108.414 380.247 106.21L396.725 61.4234Z" fill="white"/>
<path d="M517.353 131.35C508.714 131.35 500.195 130.981 492.425 127.336C490.106 125.686 488.274 123.442 487.121 120.84C485.969 118.238 485.539 115.374 485.876 112.548C486.022 108.8 486.734 105.097 487.988 101.562L501.509 65.0148C504.874 56.3628 510.856 48.9773 518.621 43.889C529.206 37.8482 540.68 35.65 553.478 35.65H649.811L661.43 0.581299H754.595L707.062 131.35H517.353ZM639.46 61.4234V59.7333C639.547 59.2442 639.547 58.7436 639.46 58.2545C639.46 55.5082 636.925 54.0294 632.066 54.0294H606.715C604.078 53.9419 601.461 54.5233 599.11 55.7194C598.098 56.3589 597.222 57.192 596.533 58.1708C595.845 59.1497 595.356 60.2551 595.096 61.4234L578.829 106.21C578.73 106.84 578.73 107.481 578.829 108.111V109.59C578.829 112.336 581.153 113.604 586.012 113.604H612.63C615.2 113.693 617.748 113.11 620.024 111.914C622.074 110.584 623.574 108.558 624.249 106.21L639.46 61.4234Z" fill="white"/>
<path d="M716.581 131.346L723.341 112.544L828.969 22.3374H758.198L766.437 1.21167H948.33L941.358 20.8586L835.73 110.009H908.402L900.586 131.135L716.581 131.346Z" fill="white"/>
<path d="M913.284 131.35L948.352 35.2275H1041.52L1006.66 131.35H913.284ZM952.366 25.7209L961.239 0.581299H1053.56L1044.47 25.9322L952.366 25.7209Z" fill="white"/>
<path d="M1264.15 101.56C1260.79 110.212 1254.81 117.598 1247.04 122.686C1236.55 128.778 1224.75 130.925 1212.4 130.925H1115.64L1102.33 167.261H1009.17L1057.33 34.8027H1247.46C1255.35 34.8031 1264.79 35.8881 1272.39 40.0842C1274.74 41.465 1276.68 43.4436 1278.02 45.8185C1279.36 48.1935 1280.04 50.88 1280 53.6046C1279.87 57.3745 1279.09 61.0931 1277.67 64.59L1264.15 101.56ZM1185.78 61.4212C1185.97 60.8023 1185.97 60.1387 1185.78 59.5198V58.2523C1185.78 55.506 1183.45 54.0271 1178.59 54.0271H1153.03C1150.4 53.9397 1147.78 54.5211 1145.43 55.7172C1143.38 57.0474 1141.88 59.0729 1141.2 61.4212L1125.15 106.208C1124.95 106.827 1124.95 107.49 1125.15 108.109V109.588C1125.15 112.334 1127.47 113.602 1132.33 113.602H1158.31C1160.95 113.689 1163.57 113.108 1165.92 111.912C1167.8 110.541 1169.09 108.499 1169.51 106.208L1185.78 61.4212Z" fill="white"/>
</svg>
