<svg width="1280" height="247" viewBox="0 0 1700 247" fill="none" xmlns="http://www.w3.org/2000/svg">
<path d="M-53.7559 193C-65.5723 193 -73.9707 191.145 -78.9512 187.434C-83.9316 183.723 -86.4219 177.961 -86.4219 170.148C-86.4219 165.168 -85.2988 158.576 -83.0527 150.373L-80.709 141.145C-78.7559 133.723 -76.4121 127.375 -73.6777 122.102C-70.9434 116.73 -67.5254 112.336 -63.4238 108.918C-59.3223 105.402 -54.4883 102.814 -48.9219 101.154C-43.3555 99.3965 -36.5684 98.5176 -28.5605 98.5176H77.9336L80.7168 88.5566C80.9121 87.7754 81.0586 87.0918 81.1562 86.5059C81.2539 85.9199 81.3027 85.334 81.3027 84.748C81.3027 82.8926 80.5215 81.5742 78.959 80.793C77.4941 80.0117 74.8574 79.6211 71.0488 79.6211H-32.6621L-25.1914 51.9355H143.998C156.791 51.9355 166.166 54.0352 172.123 58.2344C178.178 62.4336 181.205 69.6602 181.205 79.9141C181.205 87.1406 179.887 95.3438 177.25 104.523L153.52 193H-53.7559ZM70.7559 126.057H39.2617C33.8906 126.057 29.8379 126.789 27.1035 128.254C24.4668 129.621 22.416 132.893 20.9512 138.068L16.8496 153.449C16.166 155.598 15.8242 157.258 15.8242 158.43C15.8242 161.262 16.8496 163.166 18.9004 164.143C21.0488 165.021 24.3203 165.461 28.7148 165.461H50.9805C53.2266 165.461 54.9844 165.217 56.2539 164.729C57.5234 164.143 58.6465 163.264 59.623 162.092C60.6973 160.92 61.5762 159.26 62.2598 157.111C62.9434 154.865 63.7734 151.936 64.75 148.322L70.7559 126.057ZM217.24 193C204.643 193 195.609 190.51 190.141 185.529C184.77 180.549 182.084 173.859 182.084 165.461C182.084 160.578 182.865 155.158 184.428 149.201L198.93 95.7344C202.348 82.7461 208.5 72.1992 217.387 64.0938C226.273 55.9883 238.822 51.9355 255.033 51.9355H359.33L372.953 0.958984H473.734L422.318 193H217.24ZM349.223 90.4609C349.418 89.7773 349.613 88.9473 349.809 87.9707C350.004 86.9941 350.102 86.2129 350.102 85.627C350.102 81.623 347.416 79.6211 342.045 79.6211H313.773C310.355 79.6211 307.621 80.4512 305.57 82.1113C303.617 83.6738 302.152 86.457 301.176 90.4609L283.744 154.621C283.354 155.598 283.158 156.477 283.158 157.258V159.455C283.158 163.459 285.746 165.461 290.922 165.461H319.193C322.611 165.461 325.297 164.68 327.25 163.117C329.301 161.457 330.814 158.625 331.791 154.621L349.223 90.4609ZM486.771 193C474.174 193 465.141 190.51 459.672 185.529C454.301 180.549 451.615 173.859 451.615 165.461C451.615 160.578 452.396 155.158 453.959 149.201L468.461 95.7344C471.879 82.7461 478.031 72.1992 486.918 64.0938C495.805 55.9883 508.354 51.9355 524.564 51.9355H628.861L642.484 0.958984H743.266L691.85 193H486.771ZM618.754 90.4609C618.949 89.7773 619.145 88.9473 619.34 87.9707C619.535 86.9941 619.633 86.2129 619.633 85.627C619.633 81.623 616.947 79.6211 611.576 79.6211H583.305C579.887 79.6211 577.152 80.4512 575.102 82.1113C573.148 83.6738 571.684 86.457 570.707 90.4609L553.275 154.621C552.885 155.598 552.689 156.477 552.689 157.258V159.455C552.689 163.459 555.277 165.461 560.453 165.461H588.725C592.143 165.461 594.828 164.68 596.781 163.117C598.832 161.457 600.346 158.625 601.322 154.621L618.754 90.4609ZM709.135 193L716.312 165.461L830.863 33.0391H754.105L762.895 0.958984H959.623L952.152 29.8164L838.188 160.92H917.289L908.939 193H709.135ZM970.756 38.166L980.57 0.958984H1080.18L1070.37 38.166H970.756ZM928.715 193L966.508 51.9355H1067.29L1029.5 193H928.715ZM1314.85 149.201C1311.43 162.189 1305.28 172.736 1296.39 180.842C1287.5 188.947 1274.96 193 1258.74 193H1154.3L1139.95 246.467H1039.16L1091.31 51.9355H1296.54C1309.13 51.9355 1318.12 54.4746 1323.49 59.5527C1328.96 64.5332 1331.69 71.2227 1331.69 79.6211C1331.69 84.4062 1330.86 89.7773 1329.2 95.7344L1314.85 149.201ZM1230.03 90.4609C1230.42 89.3867 1230.62 88.459 1230.62 87.6777V85.627C1230.62 81.623 1227.98 79.6211 1222.71 79.6211H1194.58C1191.17 79.6211 1188.43 80.4512 1186.38 82.1113C1184.43 83.6738 1182.96 86.457 1181.99 90.4609L1164.55 154.621C1164.16 155.598 1163.97 156.477 1163.97 157.258V159.455C1163.97 163.459 1166.56 165.461 1171.73 165.461H1200C1203.42 165.461 1206.11 164.68 1208.06 163.117C1210.11 161.457 1211.62 158.625 1212.6 154.621L1230.03 90.4609Z" fill="url(#paint0_linear_876_4649)" fill-opacity="0.81"/>
<defs>
<linearGradient id="paint0_linear_876_4649" x1="1949.72" y1="-69.893" x2="897.787" y2="1079.53" gradientUnits="userSpaceOnUse">
<stop stop-color="#3FEBA7"/>
<stop offset="0.608482" stop-color="white"/>
<stop offset="1" stop-color="white"/>
</linearGradient>
</defs>
</svg>
