<svg width="auto" height="auto" viewBox="0 0 183 36" fill="none" xmlns="http://www.w3.org/2000/svg">
<g clip-path="url(#clip0_787_1388)">
<path d="M65.4584 8.40991L63.9684 12.3199L51.4584 12.3699C49.2184 12.3699 47.2284 13.7899 46.4684 15.8899L44.7684 20.5999C44.2684 21.9899 45.2984 23.4599 46.7684 23.4599H70.8784L76.4284 8.40991H65.4584ZM62.8784 15.1799L60.8384 20.8099C60.7084 21.1799 60.3684 21.4199 59.9784 21.4199H56.3084C55.8684 21.4199 55.5584 20.9799 55.7084 20.5699L57.5784 15.3599C57.7484 14.8699 58.2184 14.5399 58.7384 14.5399H62.4284C62.7584 14.5399 62.9884 14.8699 62.8784 15.1799Z" fill="white"/>
<path d="M94.1034 8.40991L92.6134 12.3199L80.1034 12.3699C77.8634 12.3699 75.8734 13.7899 75.1134 15.8899L73.4134 20.5999C72.9034 21.9899 73.9334 23.4599 75.4134 23.4599H99.5234L105.063 8.40991H94.1034ZM91.5134 15.1799L89.4834 20.8099C89.3534 21.1799 89.0034 21.4199 88.6234 21.4199H84.9534C84.5034 21.4199 84.2034 20.9799 84.3534 20.5699L86.2234 15.3599C86.3934 14.8699 86.8634 14.5399 87.3834 14.5399H91.0634C91.4034 14.5399 91.6334 14.8699 91.5134 15.1799Z" fill="white"/>
<path d="M126.908 10.7899L114.528 20.9999H123.218L122.328 23.4599H100.508L101.288 21.3499L113.728 10.9099H105.538L106.438 8.40991H127.758L126.908 10.7899Z" fill="white"/>
<path d="M140.192 8.40991L139.132 11.3299H128.242L129.302 8.40991H140.192Z" fill="white"/>
<path d="M138.752 12.3999L134.752 23.4599H123.852L127.852 12.3699L138.752 12.3999Z" fill="white"/>
<path d="M164.583 12.3899H140.542L135.062 27.5899H145.902L147.473 23.4099L159.482 23.4499C162.062 23.4499 164.362 21.8399 165.232 19.4299L166.693 15.3899C167.213 13.9299 166.133 12.3899 164.583 12.3899ZM155.743 15.1799L153.713 20.8099C153.583 21.1799 153.232 21.4199 152.842 21.4199H149.182C148.732 21.4199 148.433 20.9799 148.583 20.5699L150.443 15.3599C150.623 14.8699 151.093 14.5399 151.613 14.5399H155.292C155.622 14.5399 155.863 14.8699 155.743 15.1799Z" fill="white"/>
<path d="M42.9401 12.2898H22.8501L22.0401 14.5098H34.5501L34.0301 16.0098H21.1501C19.2701 16.0098 17.5901 17.1798 16.9501 18.9498L16.3101 20.7198C15.8301 22.0498 16.8201 23.4598 18.2301 23.4598H42.4201L45.2601 15.5898C45.8401 13.9798 44.6501 12.2898 42.9401 12.2898ZM32.3601 20.5998C32.2201 20.9698 31.8701 21.2198 31.4801 21.2198H28.0501C27.6001 21.2198 27.2801 20.7698 27.4301 20.3398L27.8501 19.1798C28.0901 18.4898 28.7401 18.0298 29.4701 18.0298H33.3001L32.3601 20.5998Z" fill="white"/>
</g>
<defs>
<clipPath id="clip0_787_1388">
<rect width="183" height="36" fill="white"/>
</clipPath>
</defs>
</svg>
