<svg width="16" height="98" viewBox="0 0 16 98" fill="none" xmlns="http://www.w3.org/2000/svg">
<path d="M8 0.666667C5.05448 0.666667 2.66667 3.05448 2.66667 6C2.66667 8.94552 5.05448 11.3333 8 11.3333C10.9455 11.3333 13.3333 8.94552 13.3333 6C13.3333 3.05448 10.9455 0.666666 8 0.666667ZM7.2929 97.7071C7.68342 98.0976 8.31659 98.0976 8.70711 97.7071L15.0711 91.3431C15.4616 90.9526 15.4616 90.3195 15.0711 89.9289C14.6805 89.5384 14.0474 89.5384 13.6569 89.9289L8 95.5858L2.34315 89.9289C1.95263 89.5384 1.31946 89.5384 0.928936 89.9289C0.538411 90.3195 0.538412 90.9526 0.928936 91.3431L7.2929 97.7071ZM7 6L7 97L9 97L9 6L7 6Z" fill="white"/>
</svg>
