<svg xmlns="http://www.w3.org/2000/svg"  viewBox="0 0 80 80" width="80px" height="80px"><path d="M 67 10 C 62.593564 10 59 13.593568 59 18 C 59 20.901251 60.636996 23.337436 62.958984 24.740234 C 58.916551 26.202849 56 29.751728 56 34 L 58 34 C 58 29.629416 61.96333 26 67 26 C 72.03667 26 76 29.629416 76 34 L 78 34 C 78 29.751728 75.083449 26.202849 71.041016 24.740234 C 73.363004 23.337436 75 20.901251 75 18 C 75 13.593568 71.406436 10 67 10 z M 67 12 C 70.325556 12 73 14.674446 73 18 C 73 21.325554 70.325556 24 67 24 C 63.674444 24 61 21.325554 61 18 C 61 14.674446 63.674444 12 67 12 z M 29.984375 14.986328 A 1.0001 1.0001 0 0 0 29.841797 15 L 25.826172 15 C 12.281903 15 1.3573401 26.697262 2.0292969 40.732422 C 2.6598113 53.887766 13.685888 64 26.488281 64 L 29.832031 64 A 1.0001 1.0001 0 0 0 30.158203 64 L 38 64 A 1.0001 1.0001 0 0 0 39 63 L 39 50 A 1.0001 1.0001 0 0 0 38 49 L 26 49 C 20.563824 49 16 45.493795 16 40 C 16 34.506205 20.677145 30 26 30 L 38 30 A 1.0001 1.0001 0 0 0 39 29 L 39 16 A 1.0001 1.0001 0 0 0 38 15 L 30.167969 15 A 1.0001 1.0001 0 0 0 29.984375 14.986328 z M 43 16 L 42.199219 16.402344 L 42.041016 17.283203 L 42.652344 17.9375 L 43 18 L 43.800781 17.597656 L 43.958984 16.716797 L 43.347656 16.0625 L 43 16 z M 47 16 L 46.199219 16.402344 L 46.041016 17.283203 L 46.652344 17.9375 L 47 18 L 47.800781 17.597656 L 47.958984 16.716797 L 47.347656 16.0625 L 47 16 z M 51 16 L 50.199219 16.402344 L 50.041016 17.283203 L 50.652344 17.9375 L 51 18 L 51.800781 17.597656 L 51.958984 16.716797 L 51.347656 16.0625 L 51 16 z M 25.826172 17 L 29 17 L 29 28 L 26 28 C 19.556855 28 14 33.379795 14 40 C 14 46.620205 19.670176 51 26 51 L 29 51 L 29 62 L 26.488281 62 C 14.738674 62 4.6068292 52.727374 4.0273438 40.636719 C 3.4073005 27.685878 13.432441 17 25.826172 17 z M 31 17 L 37 17 L 37 28 L 31 28 L 31 17 z M 43 22 L 42.199219 22.402344 L 42.041016 23.283203 L 42.652344 23.9375 L 43 24 L 43.800781 23.597656 L 43.958984 22.716797 L 43.347656 22.0625 L 43 22 z M 47 22 L 46.199219 22.402344 L 46.041016 23.283203 L 46.652344 23.9375 L 47 24 L 47.800781 23.597656 L 47.958984 22.716797 L 47.347656 22.0625 L 47 22 z M 51 22 L 50.199219 22.402344 L 50.041016 23.283203 L 50.652344 23.9375 L 51 24 L 51.800781 23.597656 L 51.958984 22.716797 L 51.347656 22.0625 L 51 22 z M 55 22 L 54.199219 22.402344 L 54.041016 23.283203 L 54.652344 23.9375 L 55 24 L 55.800781 23.597656 L 55.958984 22.716797 L 55.347656 22.0625 L 55 22 z M 43 28 L 42.199219 28.402344 L 42.041016 29.283203 L 42.652344 29.9375 L 43 30 L 43.800781 29.597656 L 43.958984 28.716797 L 43.347656 28.0625 L 43 28 z M 47 28 L 46.199219 28.402344 L 46.041016 29.283203 L 46.652344 29.9375 L 47 30 L 47.800781 29.597656 L 47.958984 28.716797 L 47.347656 28.0625 L 47 28 z M 51 28 L 50.199219 28.402344 L 50.041016 29.283203 L 50.652344 29.9375 L 51 30 L 51.800781 29.597656 L 51.958984 28.716797 L 51.347656 28.0625 L 51 28 z M 61 32 L 60.199219 32.402344 L 60.041016 33.283203 L 60.652344 33.9375 L 61 34 L 61.800781 33.597656 L 61.958984 32.716797 L 61.347656 32.0625 L 61 32 z M 65 32 L 64.199219 32.402344 L 64.041016 33.283203 L 64.652344 33.9375 L 65 34 L 65.800781 33.597656 L 65.958984 32.716797 L 65.347656 32.0625 L 65 32 z M 69 32 L 68.199219 32.402344 L 68.041016 33.283203 L 68.652344 33.9375 L 69 34 L 69.800781 33.597656 L 69.958984 32.716797 L 69.347656 32.0625 L 69 32 z M 73 32 L 72.199219 32.402344 L 72.041016 33.283203 L 72.652344 33.9375 L 73 34 L 73.800781 33.597656 L 73.958984 32.716797 L 73.347656 32.0625 L 73 32 z M 67 43 C 62.593564 43 59 46.593568 59 51 C 59 53.901251 60.636996 56.337436 62.958984 57.740234 C 58.916551 59.202849 56 62.751728 56 67 L 58 67 C 58 62.629416 61.96333 59 67 59 C 72.03667 59 76 62.629416 76 67 L 78 67 C 78 62.751728 75.083449 59.202849 71.041016 57.740234 C 73.363004 56.337436 75 53.901251 75 51 C 75 46.593568 71.406436 43 67 43 z M 67 45 C 70.325556 45 73 47.674446 73 51 C 73 54.325554 70.325556 57 67 57 C 63.674444 57 61 54.325554 61 51 C 61 47.674446 63.674444 45 67 45 z M 43 49 L 42.199219 49.402344 L 42.041016 50.283203 L 42.652344 50.9375 L 43 51 L 43.800781 50.597656 L 43.958984 49.716797 L 43.347656 49.0625 L 43 49 z M 47 49 L 46.199219 49.402344 L 46.041016 50.283203 L 46.652344 50.9375 L 47 51 L 47.800781 50.597656 L 47.958984 49.716797 L 47.347656 49.0625 L 47 49 z M 51 49 L 50.199219 49.402344 L 50.041016 50.283203 L 50.652344 50.9375 L 51 51 L 51.800781 50.597656 L 51.958984 49.716797 L 51.347656 49.0625 L 51 49 z M 31 51 L 37 51 L 37 62 L 31 62 L 31 51 z M 43 55 L 42.199219 55.402344 L 42.041016 56.283203 L 42.652344 56.9375 L 43 57 L 43.800781 56.597656 L 43.958984 55.716797 L 43.347656 55.0625 L 43 55 z M 47 55 L 46.199219 55.402344 L 46.041016 56.283203 L 46.652344 56.9375 L 47 57 L 47.800781 56.597656 L 47.958984 55.716797 L 47.347656 55.0625 L 47 55 z M 51 55 L 50.199219 55.402344 L 50.041016 56.283203 L 50.652344 56.9375 L 51 57 L 51.800781 56.597656 L 51.958984 55.716797 L 51.347656 55.0625 L 51 55 z M 55 55 L 54.199219 55.402344 L 54.041016 56.283203 L 54.652344 56.9375 L 55 57 L 55.800781 56.597656 L 55.958984 55.716797 L 55.347656 55.0625 L 55 55 z M 43 61 L 42.199219 61.402344 L 42.041016 62.283203 L 42.652344 62.9375 L 43 63 L 43.800781 62.597656 L 43.958984 61.716797 L 43.347656 61.0625 L 43 61 z M 47 61 L 46.199219 61.402344 L 46.041016 62.283203 L 46.652344 62.9375 L 47 63 L 47.800781 62.597656 L 47.958984 61.716797 L 47.347656 61.0625 L 47 61 z M 51 61 L 50.199219 61.402344 L 50.041016 62.283203 L 50.652344 62.9375 L 51 63 L 51.800781 62.597656 L 51.958984 61.716797 L 51.347656 61.0625 L 51 61 z M 61 65 L 60.199219 65.402344 L 60.041016 66.283203 L 60.652344 66.9375 L 61 67 L 61.800781 66.597656 L 61.958984 65.716797 L 61.347656 65.0625 L 61 65 z M 65 65 L 64.199219 65.402344 L 64.041016 66.283203 L 64.652344 66.9375 L 65 67 L 65.800781 66.597656 L 65.958984 65.716797 L 65.347656 65.0625 L 65 65 z M 69 65 L 68.199219 65.402344 L 68.041016 66.283203 L 68.652344 66.9375 L 69 67 L 69.800781 66.597656 L 69.958984 65.716797 L 69.347656 65.0625 L 69 65 z M 73 65 L 72.199219 65.402344 L 72.041016 66.283203 L 72.652344 66.9375 L 73 67 L 73.800781 66.597656 L 73.958984 65.716797 L 73.347656 65.0625 L 73 65 z"/></svg>