<svg width="1280" height="167" viewBox="0 0 1280 167" fill="none" xmlns="http://www.w3.org/2000/svg">
<path d="M30.2133 130.77C22.2607 131.253 14.3047 129.879 6.97499 126.756C4.83268 125.677 3.04039 124.013 1.80634 121.956C0.572292 119.899 -0.0528625 117.535 0.00350125 115.137C0.306857 110.486 1.3776 105.917 3.17236 101.616L5.28493 95.4897C6.90881 90.8659 9.10915 86.4652 11.8339 82.3918C14.2984 78.8343 17.461 75.8154 21.1292 73.519C25.184 70.9176 29.7032 69.1243 34.4384 68.2376C40.6093 66.8677 46.9201 66.2295 53.2403 66.3362H152.109L154.644 59.576C154.644 59.576 154.644 59.576 154.644 58.3085C154.644 57.0409 154.644 58.3085 154.644 57.0409C154.596 56.4275 154.371 55.8411 153.996 55.3535C153.621 54.8658 153.112 54.4978 152.531 54.2946C150.077 53.9689 147.591 53.9689 145.137 54.2946H49.649L56.6205 35.4927H213.162C222.118 34.9659 231.075 36.483 239.358 39.9291C242.044 41.2414 244.268 43.3368 245.739 45.9391C247.21 48.5413 247.858 51.5281 247.597 54.5058C247.397 60.306 246.181 66.0261 244.006 71.4064L222.88 131.615L30.2133 130.77ZM145.349 84.5044H116.195C112.578 84.5879 109.003 85.3028 105.632 86.6169C104.265 87.2869 103.052 88.2339 102.07 89.3976C101.088 90.5614 100.359 91.9166 99.9282 93.3772L96.1256 103.729C95.9237 104.846 95.9237 105.991 96.1256 107.109C96.0665 107.553 96.0964 108.005 96.2136 108.438C96.3308 108.871 96.5329 109.276 96.8081 109.63C97.0834 109.983 97.4262 110.279 97.8168 110.499C98.2074 110.719 98.6379 110.859 99.0832 110.912C101.22 111.508 103.416 111.862 105.632 111.968H126.758C128.367 112.232 130.008 112.232 131.617 111.968C132.79 111.658 133.875 111.079 134.786 110.278C136.088 108.993 137.035 107.391 137.532 105.63L139.856 99.7149L145.349 84.5044Z" fill="#F6F6F6"/>
<path d="M274.619 130.768C266.029 131.785 257.326 130.395 249.479 126.754C247.182 125.282 245.297 123.249 244.003 120.847C242.709 118.444 242.049 115.751 242.085 113.023C242.128 109.264 242.844 105.544 244.198 102.037L257.507 65.4897C260.476 56.0605 266.496 47.8857 274.619 42.2515C285.204 36.2106 297.307 33.35 309.476 34.0124H406.021L418.696 0H511.861L464.751 130.768H274.619ZM396.726 60.8421C396.653 60.2811 396.653 59.713 396.726 59.152C396.813 58.6629 396.813 58.1623 396.726 57.6732C396.726 54.9269 394.402 53.4481 389.332 53.4481H363.77C361.2 53.3591 358.651 53.9416 356.376 55.1381C354.268 56.4057 352.749 58.4567 352.15 60.8421L336.095 105.629C335.913 106.249 335.913 106.909 336.095 107.53V109.009C336.095 111.755 338.63 113.023 343.278 113.023H369.473C372.111 113.11 374.727 112.529 377.079 111.333C378.747 109.843 379.864 107.833 380.248 105.629L396.726 60.8421Z" fill="#F6F6F6"/>
<path d="M517.355 130.768C508.833 131.79 500.196 130.399 492.426 126.754C490.107 125.105 488.275 122.861 487.123 120.259C485.97 117.657 485.54 114.792 485.877 111.966C486.023 108.219 486.736 104.515 487.99 100.981L501.51 64.4335C504.875 55.7815 510.857 48.396 518.622 43.3077C529.207 37.2669 541.31 34.4063 553.48 35.0687H649.813L661.432 0H754.596L707.064 130.768H517.355ZM639.461 60.8421V59.152C639.548 58.6629 639.548 58.1623 639.461 57.6732C639.461 54.9269 636.926 53.4481 632.067 53.4481H606.716C604.079 53.3606 601.463 53.942 599.111 55.1381C598.099 55.7776 597.224 56.6107 596.535 57.5895C595.846 58.5684 595.357 59.6738 595.097 60.8421L578.83 105.629C578.731 106.259 578.731 106.9 578.83 107.53V109.009C578.83 111.755 581.154 113.023 586.013 113.023H612.632C615.201 113.112 617.75 112.529 620.026 111.333C622.075 110.002 623.575 107.977 624.251 105.629L639.461 60.8421Z" fill="#F6F6F6"/>
<path d="M716.584 130.762L723.344 111.961L828.973 21.7537H758.202L766.441 0.62793H948.333L941.362 20.2749L835.733 109.425H908.406L900.589 130.551L716.584 130.762Z" fill="#17DE8F"/>
<path d="M913.281 130.768L948.35 34.6462H1041.51L1006.66 130.768H913.281ZM952.364 25.1396L961.237 0H1053.56L1044.47 25.3509L952.364 25.1396Z" fill="#17DE8F"/>
<path d="M1264.15 100.982C1260.79 109.634 1254.81 117.019 1247.04 122.107C1236.55 128.2 1224.5 131.066 1212.4 130.347H1115.64L1102.33 166.683H1009.17L1057.33 34.2245H1247.46C1256.11 33.4713 1264.79 35.3098 1272.39 39.5059C1274.74 40.8867 1276.68 42.8653 1278.02 45.2403C1279.35 47.6152 1280.04 50.3017 1280 53.0264C1279.87 56.7962 1279.09 60.5148 1277.67 64.0117L1264.15 100.982ZM1185.78 60.8429C1185.97 60.2241 1185.97 59.5604 1185.78 58.9416V57.674C1185.78 54.9277 1183.45 53.4489 1178.59 53.4489H1153.03C1150.4 53.3614 1147.78 53.9428 1145.43 55.1389C1143.38 56.4691 1141.88 58.4946 1141.2 60.8429L1125.15 105.629C1124.95 106.248 1124.95 106.912 1125.15 107.531V109.01C1125.15 111.756 1127.47 113.023 1132.33 113.023H1158.31C1160.95 113.111 1163.57 112.53 1165.92 111.333C1167.8 109.963 1169.09 107.921 1169.51 105.629L1185.78 60.8429Z" fill="#17DE8F"/>
</svg>
