<svg width="48" height="50" viewBox="0 0 48 50" fill="none" xmlns="http://www.w3.org/2000/svg">
<g id="&#240;&#159;&#166;&#134; icon &#34;bell notification&#34;">
<path id="Vector" d="M37.327 22.6038C38.7238 35.5073 44.2076 39.4067 44.2076 39.4067H1C1 39.4067 8.20126 34.2859 8.20126 16.3627C8.20126 12.2882 9.71867 8.3807 12.4197 5.49964C15.1207 2.61856 18.784 1 22.6038 1C23.4135 1 24.2162 1.07273 25.0042 1.21481" stroke="white" stroke-width="2" stroke-linecap="round" stroke-linejoin="round"/>
<path id="Vector_2" d="M39.4044 15.4025C43.3816 15.4025 46.6057 12.1784 46.6057 8.20126C46.6057 4.22413 43.3816 1 39.4044 1C35.4271 1 32.2031 4.22413 32.2031 8.20126C32.2031 12.1784 35.4271 15.4025 39.4044 15.4025Z" stroke="white" stroke-width="2" stroke-linecap="round" stroke-linejoin="round"/>
<path id="Vector_3" d="M26.7547 46.608C26.3327 47.3355 25.7271 47.9395 24.998 48.3591C24.2693 48.7789 23.4431 49 22.6019 49C21.7608 49 20.9346 48.7789 20.2058 48.3591C19.4771 47.9395 18.8712 47.3355 18.4492 46.608" stroke="white" stroke-width="2" stroke-linecap="round" stroke-linejoin="round"/>
</g>
</svg>
