<svg width="27" height="27" viewBox="0 0 27 27" fill="none" xmlns="http://www.w3.org/2000/svg">
<path id="Vector" d="M10.8868 19.1396C9.7558 20.34 8.62477 21.5118 7.52202 22.7407C6.70202 23.6553 5.96685 23.7125 5.17513 22.7407C4.92065 22.3978 4.58134 22.112 4.27031 21.8262C3.56342 21.1688 3.59169 20.54 4.32686 19.9113C5.62755 18.7681 6.92823 17.5677 8.20064 16.4245C8.08753 16.1959 8.00271 15.9672 7.8896 15.7386C6.47582 15.7386 5.06203 15.7386 3.64825 15.7386C1.44274 15.7386 0.396537 14.2238 1.35791 12.1946C1.52757 11.8231 2.26273 11.5373 2.74342 11.5087C4.41169 11.4229 6.07996 11.4801 7.7765 11.4801C7.83305 11.3372 7.8896 11.2229 7.97443 11.08C6.8434 9.9082 5.71237 8.76499 4.58134 7.5932C3.39376 6.39283 3.42204 6.27851 4.94893 4.76375C6.19306 3.50622 6.50409 3.47764 7.57857 4.59227C8.68132 5.73548 9.7558 6.93585 10.8303 8.13622C10.9717 8.05048 11.1413 7.99332 11.2827 7.90758C11.311 7.13591 11.3675 6.39283 11.3958 5.62116C11.4241 4.96381 11.3958 4.27789 11.4241 3.62054C11.4241 1.3627 12.7248 0.448135 14.8737 1.33412C15.2413 1.47702 15.5523 2.27727 15.5806 2.79172C15.6654 4.47795 15.6089 6.16418 15.6089 7.85042C15.7503 7.90758 15.8634 7.96474 16.0047 8.05048C17.0792 6.96443 18.1254 5.8498 19.2564 4.84949C19.7371 4.42079 20.6702 3.76344 20.953 3.93492C21.8295 4.47795 22.5647 5.33536 23.1868 6.19276C23.3281 6.39283 22.9323 7.16449 22.593 7.47888C21.4337 8.65067 20.1895 9.76529 19.002 10.8799C19.0585 11.0228 19.1433 11.1943 19.1999 11.3372C19.9633 11.3658 20.6985 11.4229 21.462 11.4515C22.084 11.4801 22.6778 11.4515 23.2999 11.4515C25.6185 11.4801 26.5233 12.7376 25.7033 14.9669C25.5619 15.3099 24.9399 15.6528 24.5157 15.6814C23.215 15.7671 21.8861 15.71 20.5571 15.71C20.1047 15.71 19.6523 15.7671 18.8606 15.7957C20.2744 17.2819 21.4337 18.4823 22.593 19.7112C23.6392 20.8259 23.5544 21.0259 22.0557 22.5978C21.2357 23.4552 20.5571 23.7696 19.5958 22.7407C18.4647 21.5118 17.2206 20.3686 16.0613 19.1682C15.9482 19.2254 15.8068 19.2539 15.6937 19.3111C15.6937 20.9402 15.6372 22.5978 15.722 24.2269C15.7785 25.513 15.3261 26.0275 13.9972 25.9989C11.4806 25.9703 11.4806 26.0275 11.4806 23.4838C11.4806 22.112 11.4806 20.7687 11.4806 19.3968C11.2544 19.3397 11.0848 19.2539 10.8868 19.1396Z" stroke="white" stroke-miterlimit="10"/>
</svg>
