<svg width="53" height="47" viewBox="0 0 53 47" fill="none" xmlns="http://www.w3.org/2000/svg">
<g id="&#240;&#159;&#166;&#134; icon &#34;camera&#34;">
<path id="Vector" d="M1 41V16C1 13.2386 3.28081 11 6.09434 11H7.36792C8.97139 11 10.4813 10.259 11.4434 9L17.0981 1.6C17.3867 1.2223 17.8397 1 18.3208 1H34.6226C35.1038 1 35.5567 1.2223 35.8453 1.6L41.5 9C42.4621 10.259 43.972 11 45.5755 11H46.8491C49.6627 11 51.9434 13.2386 51.9434 16V41C51.9434 43.7615 49.6627 46 46.8491 46H6.09434C3.28081 46 1 43.7615 1 41Z" stroke="white" stroke-width="2" stroke-linecap="round" stroke-linejoin="round"/>
<path id="Vector_2" d="M26.4699 36.0001C32.0969 36.0001 36.6586 31.5229 36.6586 26.0001C36.6586 20.4774 32.0969 16.0001 26.4699 16.0001C20.8429 16.0001 16.2812 20.4774 16.2812 26.0001C16.2812 31.5229 20.8429 36.0001 26.4699 36.0001Z" stroke="white" stroke-width="2" stroke-linecap="round" stroke-linejoin="round"/>
</g>
</svg>
