<svg width="32" height="32" viewBox="0 0 32 32" fill="none" xmlns="http://www.w3.org/2000/svg">
<g clip-path="url(#clip0_997_6317)">
<path d="M21.3429 18.889C21.2939 18.74 21.1559 18.64 20.9999 18.64H17.5069L16.3439 14.893C16.2499 14.592 15.7499 14.592 15.6559 14.893L14.4929 18.64H10.9999C10.8439 18.64 10.7059 18.741 10.6579 18.889C10.6099 19.037 10.6619 19.2 10.7879 19.291L13.5809 21.327L12.6509 24.909C12.6119 25.058 12.6729 25.217 12.8029 25.302C12.9309 25.386 13.1009 25.377 13.2219 25.283L15.9999 23.098L18.7769 25.284C18.8419 25.335 18.9209 25.361 18.9999 25.361C19.0679 25.361 19.1369 25.341 19.1969 25.302C19.3259 25.217 19.3869 25.059 19.3479 24.909L18.4169 21.327L21.2109 19.291C21.3379 19.199 21.3909 19.037 21.3429 18.889ZM17.7959 20.89C17.6769 20.977 17.6219 21.128 17.6589 21.272L18.3829 24.057L16.2229 22.357C16.0919 22.255 15.9089 22.255 15.7779 22.357L13.6169 24.057L14.3409 21.272C14.3779 21.128 14.3239 20.977 14.2039 20.89L12.1049 19.361H14.7589C14.9169 19.361 15.0559 19.258 15.1029 19.107L15.9999 16.215L16.8969 19.107C16.9439 19.258 17.0829 19.361 17.2409 19.361H19.8939L17.7959 20.89ZM0.999902 30.64H30.9999V31.361H0.999902V30.64ZM3.9999 28.64H27.9999V29.361H3.9999V28.64ZM6.9999 26.64H24.9999V27.361H6.9999V26.64ZM31.1799 5.421L29.7589 4.601L30.5789 3.18C30.6269 3.097 30.6399 2.999 30.6149 2.907C30.5899 2.815 30.5299 2.736 30.4469 2.688L26.9819 0.687997C26.8119 0.589997 26.5909 0.647997 26.4909 0.819997L25.6709 2.241L24.2519 1.422C24.0819 1.323 23.8609 1.381 23.7609 1.553L21.7609 5.017C21.6609 5.189 21.7199 5.41 21.8929 5.509L22.2409 5.71L15.9999 10.331L9.7599 5.71L10.1079 5.509C10.1909 5.461 10.2509 5.383 10.2749 5.29C10.2999 5.198 10.2869 5.1 10.2389 5.017L8.2389 1.553C8.1399 1.382 7.9189 1.323 7.7469 1.421L6.3289 2.24L5.5079 0.819997C5.4099 0.647997 5.1889 0.586997 5.0169 0.687997L1.5529 2.688C1.3809 2.788 1.3219 3.008 1.4209 3.18L2.2409 4.6L0.819902 5.421C0.647902 5.521 0.588902 5.741 0.687902 5.913L2.6879 9.377C2.7549 9.492 2.8759 9.557 2.9999 9.557C3.0609 9.557 3.1229 9.542 3.1799 9.509L3.7439 9.183L6.6459 25.064L7.3539 24.935L4.1509 7.405C4.5429 7.669 4.9969 7.825 5.4679 7.825C5.8679 7.825 6.2729 7.723 6.6439 7.51C7.1899 7.195 7.5809 6.686 7.7439 6.077C7.8249 5.771 7.8449 5.46 7.8049 5.157L15.3949 10.778L12.7849 12.711L13.2139 13.289L15.9999 11.226L18.7859 13.289L19.2139 12.711L16.6049 10.778L24.1989 5.154C24.0779 6.073 24.5059 7.017 25.3569 7.508C25.7199 7.718 26.1239 7.825 26.5329 7.825C26.7379 7.825 26.9439 7.798 27.1469 7.743C27.4019 7.675 27.6339 7.558 27.8469 7.416L24.6459 24.934L25.3549 25.063L28.2569 9.182L28.8209 9.508C28.8779 9.541 28.9389 9.556 29.0009 9.556C29.1249 9.556 29.2459 9.492 29.3129 9.376L31.3129 5.912C31.4109 5.741 31.3529 5.521 31.1799 5.421ZM7.7959 2.225L9.4359 5.065L9.1289 5.242L6.8899 3.583V3.584C6.6549 3.406 6.3889 3.279 6.1099 3.199L7.7959 2.225ZM2.2249 3.132L5.0649 1.492L5.7049 2.6L4.2839 3.421L2.8649 4.241L2.2249 3.132ZM3.1319 8.705L1.4919 5.865L3.1799 4.89C3.0959 5.225 3.0919 5.576 3.1599 5.922L3.1479 5.924L3.6059 8.431L3.1319 8.705ZM7.0479 5.889C6.9349 6.312 6.6639 6.666 6.2839 6.885C5.5019 7.338 4.4969 7.068 4.0439 6.285C3.5919 5.502 3.8609 4.497 4.6439 4.045C5.4259 3.592 6.4319 3.862 6.8839 4.645C7.1039 5.024 7.1619 5.466 7.0479 5.889ZM26.9349 1.492L29.7759 3.132L29.1359 4.241L27.7199 3.423C27.7199 3.423 27.7179 3.421 27.7159 3.42L27.7119 3.418L26.2939 2.599L26.9349 1.492ZM22.5629 5.065L24.2039 2.225L25.8929 3.2C25.6129 3.279 25.3469 3.407 25.1119 3.584L22.8709 5.243L22.5629 5.065ZM26.9599 7.049C26.5399 7.164 26.0959 7.105 25.7159 6.885C24.9329 6.433 24.6639 5.428 25.1149 4.645C25.5669 3.862 26.5729 3.594 27.3559 4.045C27.7349 4.264 28.0059 4.618 28.1199 5.041C28.2329 5.464 28.1749 5.906 27.9559 6.286C27.7369 6.664 27.3839 6.936 26.9599 7.049ZM28.8679 8.705L28.3929 8.431L28.8509 5.924L28.8409 5.922C28.9079 5.584 28.9069 5.234 28.8209 4.891L30.5069 5.865L28.8679 8.705Z" fill="white"/>
</g>
<defs>
<clipPath id="clip0_997_6317">
<rect width="32" height="32" fill="white"/>
</clipPath>
</defs>
</svg>
