<svg width="62" height="48" viewBox="0 0 62 48" fill="none" xmlns="http://www.w3.org/2000/svg">
<g id="&#240;&#159;&#166;&#134; icon &#34;group&#34;">
<path id="Vector" d="M1 47V44.2941C1 33.8332 9.48026 25.353 19.9412 25.353C30.4021 25.353 38.8823 33.8332 38.8823 44.2941V47" stroke="white" stroke-width="2" stroke-linecap="round"/>
<path id="Vector_2" d="M33.4688 30.7649C33.4688 23.2929 39.5261 17.2355 46.9982 17.2355C54.4702 17.2355 60.5276 23.2929 60.5276 30.7649V32.1178" stroke="white" stroke-width="2" stroke-linecap="round"/>
<path id="Vector_3" d="M19.9407 25.353C25.9183 25.353 30.7642 20.5071 30.7642 14.5295C30.7642 8.55185 25.9183 3.70599 19.9407 3.70599C13.963 3.70599 9.11719 8.55185 9.11719 14.5295C9.11719 20.5071 13.963 25.353 19.9407 25.353Z" stroke="white" stroke-width="2" stroke-linecap="round" stroke-linejoin="round"/>
<path id="Vector_4" d="M47.0005 17.2353C51.4838 17.2353 55.1181 13.6009 55.1181 9.11764C55.1181 4.6344 51.4838 1 47.0005 1C42.5171 1 38.8828 4.6344 38.8828 9.11764C38.8828 13.6009 42.5171 17.2353 47.0005 17.2353Z" stroke="white" stroke-width="2" stroke-linecap="round" stroke-linejoin="round"/>
</g>
</svg>
