<svg width="12" height="516" viewBox="0 0 12 516" fill="none" xmlns="http://www.w3.org/2000/svg">
<path d="M0.666667 6C0.666667 8.94552 3.05448 11.3333 6 11.3333C8.94552 11.3333 11.3333 8.94552 11.3333 6C11.3333 3.05448 8.94552 0.666667 6 0.666667C3.05448 0.666667 0.666667 3.05448 0.666667 6ZM0.666667 174C0.666667 176.946 3.05448 179.333 6 179.333C8.94552 179.333 11.3333 176.946 11.3333 174C11.3333 171.054 8.94552 168.667 6 168.667C3.05448 168.667 0.666667 171.054 0.666667 174ZM5 6V174H7V6H5Z" fill="white"/>
<path d="M0.666667 174C0.666667 176.946 3.05448 179.333 6 179.333C8.94552 179.333 11.3333 176.946 11.3333 174C11.3333 171.054 8.94552 168.667 6 168.667C3.05448 168.667 0.666667 171.054 0.666667 174ZM0.666667 342C0.666667 344.946 3.05448 347.333 6 347.333C8.94552 347.333 11.3333 344.946 11.3333 342C11.3333 339.054 8.94552 336.667 6 336.667C3.05448 336.667 0.666667 339.054 0.666667 342ZM5 174V342H7V174H5Z" fill="white"/>
<path d="M0.666667 342C0.666667 344.946 3.05448 347.333 6 347.333C8.94552 347.333 11.3333 344.946 11.3333 342C11.3333 339.054 8.94552 336.667 6 336.667C3.05448 336.667 0.666667 339.054 0.666667 342ZM0.666667 510C0.666667 512.946 3.05448 515.333 6 515.333C8.94552 515.333 11.3333 512.946 11.3333 510C11.3333 507.054 8.94552 504.667 6 504.667C3.05448 504.667 0.666667 507.054 0.666667 510ZM5 342V510H7V342H5Z" fill="white"/>
</svg>
