<svg width="120" height="16" viewBox="0 0 120 16" fill="none" xmlns="http://www.w3.org/2000/svg">
<path d="M2.8325 12.2598C2.08694 12.3051 1.34106 12.1763 0.653906 11.8835C0.453064 11.7824 0.285037 11.6263 0.169344 11.4335C0.0536524 11.2407 -0.00495586 11.019 0.000328242 10.7942C0.0287678 10.3582 0.12915 9.92988 0.297409 9.52664L0.495463 8.95229C0.647701 8.5188 0.853983 8.10624 1.10943 7.72436C1.34047 7.39084 1.63697 7.10782 1.98087 6.89253C2.361 6.64865 2.78468 6.48052 3.2286 6.3974C3.80713 6.26897 4.39876 6.20914 4.99128 6.21915H14.2602L14.4979 5.58537C14.4979 5.58537 14.4979 5.58537 14.4979 5.46654C14.4979 5.34771 14.4979 5.46654 14.4979 5.34771C14.4934 5.2902 14.4723 5.23523 14.4371 5.18951C14.402 5.14379 14.3543 5.1093 14.2998 5.09024C14.0698 5.0597 13.8367 5.0597 13.6066 5.09024H4.65459L5.30817 3.32756H19.984C20.8235 3.27818 21.6633 3.4204 22.4398 3.74347C22.6916 3.86651 22.9002 4.06295 23.0381 4.30691C23.176 4.55087 23.2367 4.83088 23.2122 5.11005C23.1935 5.65381 23.0795 6.19007 22.8755 6.69448L20.895 12.339L2.8325 12.2598ZM13.6264 7.92241H10.8933C10.5542 7.93024 10.219 7.99726 9.90302 8.12046C9.77483 8.18327 9.6611 8.27205 9.56904 8.38115C9.47698 8.49025 9.40862 8.6173 9.36827 8.75423L9.01178 9.7247C8.99285 9.82948 8.99285 9.9368 9.01178 10.0416C9.00624 10.0832 9.00904 10.1256 9.02003 10.1662C9.03101 10.2067 9.04996 10.2447 9.07576 10.2779C9.10157 10.3111 9.13371 10.3388 9.17033 10.3594C9.20695 10.3801 9.2473 10.3932 9.28905 10.3981C9.48934 10.454 9.6953 10.4872 9.90302 10.4971H11.8836C12.0344 10.5219 12.1882 10.5219 12.3391 10.4971C12.4491 10.4681 12.5508 10.4138 12.6362 10.3387C12.7583 10.2182 12.847 10.068 12.8936 9.90295L13.1115 9.3484L13.6264 7.92241Z" fill="white"/>
<path d="M25.7455 12.2594C24.9402 12.3547 24.1242 12.2244 23.3886 11.8831C23.1732 11.7451 22.9965 11.5545 22.8752 11.3292C22.7539 11.104 22.6921 10.8516 22.6954 10.5958C22.6994 10.2434 22.7665 9.89459 22.8935 9.56588L24.1412 6.13954C24.4196 5.25555 24.9839 4.48917 25.7455 3.96095C26.7378 3.39463 27.8725 3.12644 29.0134 3.18854H38.0644L39.2527 -0.00012207H47.9869L43.5703 12.2594H25.7455ZM37.193 5.70383C37.1861 5.65123 37.1861 5.59798 37.193 5.54538C37.2011 5.49953 37.2011 5.4526 37.193 5.40675C37.193 5.14928 36.9751 5.01064 36.4998 5.01064H34.1033C33.8624 5.00229 33.6235 5.0569 33.4102 5.16908C33.2126 5.28791 33.0701 5.4802 33.014 5.70383L31.5088 9.90257C31.4918 9.96076 31.4918 10.0226 31.5088 10.0808V10.2195C31.5088 10.4769 31.7465 10.5958 32.1822 10.5958H34.6381C34.8853 10.604 35.1306 10.5494 35.3511 10.4373C35.5075 10.2976 35.6122 10.1092 35.6482 9.90257L37.193 5.70383Z" fill="white"/>
<path d="M48.5005 12.2594C47.7016 12.3552 46.8919 12.2248 46.1635 11.8831C45.9461 11.7285 45.7743 11.5181 45.6663 11.2742C45.5583 11.0302 45.5179 10.7617 45.5495 10.4967C45.5632 10.1454 45.63 9.79819 45.7476 9.46685L47.0151 6.04052C47.3306 5.22939 47.8914 4.537 48.6194 4.05998C49.6117 3.49365 50.7463 3.22547 51.8872 3.28757H60.9185L62.0078 -0.00012207H70.742L66.2858 12.2594H48.5005ZM59.948 5.70383V5.54538C59.9562 5.49953 59.9562 5.4526 59.948 5.40675C59.948 5.14928 59.7104 5.01064 59.2548 5.01064H56.8782C56.631 5.00244 56.3857 5.05694 56.1652 5.16908C56.0703 5.22903 55.9883 5.30713 55.9237 5.3989C55.8591 5.49067 55.8133 5.5943 55.7889 5.70383L54.2639 9.90257C54.2546 9.96162 54.2546 10.0218 54.2639 10.0808V10.2195C54.2639 10.4769 54.4817 10.5958 54.9373 10.5958H57.4327C57.6737 10.6041 57.9126 10.5495 58.1259 10.4373C58.3181 10.3126 58.4587 10.1227 58.522 9.90257L59.948 5.70383Z" fill="white"/>
<path d="M67.1797 12.2591L67.8135 10.4964L77.7162 2.0395H71.0813L71.8538 0.05896H88.9062L88.2526 1.90086L78.3499 10.2587H85.163L84.4302 12.2393L67.1797 12.2591Z" fill="#3FEBA7"/>
<path d="M85.6211 12.2594L88.9088 3.24796H97.643L94.3751 12.2594H85.6211ZM89.2851 2.35672L90.1169 -0.00012207H98.7719L97.9202 2.37652L89.2851 2.35672Z" fill="#3FEBA7"/>
<path d="M118.514 9.46707C118.199 10.2782 117.638 10.9706 116.91 11.4476C115.927 12.0188 114.797 12.2875 113.662 12.22H104.591L103.344 15.6265H94.6094L99.125 3.20857H116.95C117.761 3.13796 118.574 3.31033 119.287 3.70371C119.507 3.83316 119.689 4.01865 119.814 4.24131C119.94 4.46396 120.004 4.71582 120 4.97125C119.988 5.32468 119.915 5.6733 119.782 6.00113L118.514 9.46707ZM111.167 5.70405C111.185 5.64604 111.185 5.58382 111.167 5.5258V5.40697C111.167 5.1495 110.949 5.01086 110.493 5.01086H108.097C107.85 5.00266 107.604 5.05717 107.384 5.16931C107.192 5.29401 107.051 5.4839 106.988 5.70405L105.483 9.90279C105.464 9.96081 105.464 10.023 105.483 10.081V10.2197C105.483 10.4771 105.7 10.596 106.156 10.596H108.592C108.839 10.6042 109.084 10.5497 109.305 10.4375C109.482 10.3091 109.602 10.1176 109.642 9.90279L111.167 5.70405Z" fill="#3FEBA7"/>
</svg>
