<svg width="120" height="16" viewBox="0 0 120 16" fill="none" xmlns="http://www.w3.org/2000/svg">
<path d="M2.8325 12.2596C2.09777 12.2596 1.34106 12.1761 0.653906 11.8833C0.453064 11.7822 0.285037 11.6262 0.169344 11.4333C0.0536524 11.2405 -0.00495586 11.0188 0.000328242 10.794C0.0287678 10.358 0.12915 9.92971 0.297409 9.52647L0.495463 8.95212C0.647701 8.51863 0.853983 8.10607 1.10943 7.72419C1.34047 7.39067 1.63697 7.10765 1.98087 6.89236C2.361 6.64848 2.78468 6.48035 3.2286 6.39723C3.80713 6.2688 4.39876 6.20897 4.99128 6.21898H14.2602L14.4979 5.58521C14.4979 5.58521 14.4979 5.58521 14.4979 5.46637C14.4979 5.34754 14.4979 5.46637 14.4979 5.34754C14.4934 5.29003 14.4723 5.23506 14.4371 5.18934C14.402 5.14362 14.3543 5.10913 14.2998 5.09007C14.0698 5.05954 13.8367 5.05954 13.6066 5.09007H4.65459L5.30817 3.32739H19.984C20.8064 3.32739 21.6633 3.42024 22.4398 3.74331C22.6916 3.86634 22.9002 4.06278 23.0381 4.30674C23.176 4.5507 23.2367 4.83071 23.2122 5.10988C23.1935 5.65364 23.0795 6.1899 22.8755 6.69431L20.895 12.3388L2.8325 12.2596ZM13.6264 7.92224H10.8933C10.5542 7.93007 10.219 7.99709 9.90302 8.12029C9.77483 8.1831 9.66109 8.27188 9.56904 8.38098C9.47698 8.49008 9.40861 8.61713 9.36827 8.75407L9.01178 9.72453C8.99285 9.82931 8.99285 9.93663 9.01178 10.0414C9.00624 10.0831 9.00904 10.1254 9.02003 10.166C9.03101 10.2066 9.04996 10.2445 9.07576 10.2777C9.10157 10.3109 9.13371 10.3386 9.17033 10.3592C9.20695 10.3799 9.2473 10.393 9.28905 10.3979C9.48934 10.4538 9.69529 10.4871 9.90302 10.4969H11.8836C12.0344 10.5217 12.1882 10.5217 12.3391 10.4969C12.4491 10.4679 12.5508 10.4137 12.6362 10.3385C12.7583 10.218 12.847 10.0679 12.8936 9.90278L13.1115 9.34823L13.6264 7.92224Z" fill="white"/>
<path d="M25.7455 12.2595C24.9591 12.2595 24.1242 12.2246 23.3886 11.8832C23.1732 11.7452 22.9965 11.5546 22.8752 11.3294C22.7539 11.1041 22.6921 10.8517 22.6954 10.5959C22.6994 10.2435 22.7665 9.89471 22.8935 9.566L24.1412 6.13967C24.4196 5.25567 24.9839 4.48929 25.7455 3.96108C26.7378 3.39475 27.8703 3.18867 29.0134 3.18867H38.0644L39.2527 0H47.9869L43.5703 12.2595H25.7455ZM37.193 5.70395C37.1861 5.65136 37.1861 5.5981 37.193 5.54551C37.2011 5.49965 37.2011 5.45272 37.193 5.40687C37.193 5.1494 36.9751 5.01076 36.4998 5.01076H34.1033C33.8624 5.00241 33.6235 5.05702 33.4102 5.1692C33.2126 5.28803 33.0701 5.48032 33.014 5.70395L31.5088 9.90269C31.4918 9.96088 31.4918 10.0227 31.5088 10.0809V10.2196C31.5088 10.477 31.7465 10.5959 32.1822 10.5959H34.6381C34.8853 10.6041 35.1306 10.5496 35.3511 10.4374C35.5075 10.2977 35.6122 10.1093 35.6482 9.90269L37.193 5.70395Z" fill="white"/>
<path d="M48.502 12.2595C47.6921 12.2595 46.8934 12.2249 46.165 11.8832C45.9475 11.7286 45.7758 11.5182 45.6678 11.2743C45.5597 11.0303 45.5194 10.7618 45.551 10.4968C45.5647 10.1455 45.6315 9.79831 45.749 9.46697L47.0166 6.04064C47.332 5.22952 47.8929 4.53712 48.6208 4.0601C49.6132 3.49377 50.6889 3.28769 51.8887 3.28769H60.92L62.0093 0H70.7434L66.2872 12.2595H48.502ZM59.9495 5.70395V5.5455C59.9576 5.49965 59.9576 5.45272 59.9495 5.40687C59.9495 5.1494 59.7118 5.01076 59.2563 5.01076H56.8797C56.6324 5.00256 56.3872 5.05706 56.1667 5.1692C56.0718 5.22915 55.9897 5.30725 55.9251 5.39902C55.8606 5.49079 55.8148 5.59442 55.7904 5.70395L54.2653 9.90269C54.2561 9.96174 54.2561 10.0219 54.2653 10.0809V10.2196C54.2653 10.477 54.4832 10.5959 54.9387 10.5959H57.4342C57.6751 10.6042 57.914 10.5496 58.1274 10.4374C58.3195 10.3127 58.4602 10.1228 58.5235 9.90269L59.9495 5.70395Z" fill="white"/>
<path d="M67.1794 12.2592L67.8132 10.4965L77.7159 2.03962H71.0811L71.8535 0.059082H88.9059L88.2524 1.90098L78.3497 10.2588H85.1627L84.4299 12.2394L67.1794 12.2592Z" fill="white"/>
<path d="M85.6204 12.2595L88.9081 3.24808H97.6422L94.3743 12.2595H85.6204ZM89.2844 2.35684L90.1162 0H98.7711L97.9195 2.37664L89.2844 2.35684Z" fill="white"/>
<path d="M118.514 9.46675C118.199 10.2779 117.638 10.9703 116.91 11.4473C115.927 12.0185 114.821 12.2197 113.662 12.2197H104.591L103.344 15.6262H94.6094L99.125 3.20825H116.95C117.689 3.20828 118.574 3.31 119.287 3.70339C119.507 3.83284 119.689 4.01833 119.814 4.24098C119.94 4.46364 120.004 4.7155 120 4.97093C119.988 5.32435 119.915 5.67298 119.782 6.00081L118.514 9.46675ZM111.167 5.70373C111.185 5.64571 111.185 5.5835 111.167 5.52548V5.40665C111.167 5.14918 110.949 5.01054 110.493 5.01054H108.097C107.85 5.00234 107.604 5.05685 107.384 5.16898C107.192 5.29369 107.051 5.48358 106.988 5.70373L105.483 9.90247C105.464 9.96048 105.464 10.0227 105.483 10.0807V10.2194C105.483 10.4768 105.7 10.5957 106.156 10.5957H108.592C108.839 10.6039 109.084 10.5494 109.305 10.4372C109.482 10.3087 109.602 10.1173 109.642 9.90247L111.167 5.70373Z" fill="white"/>
</svg>
