<svg width="32" height="32" viewBox="0 0 32 32" fill="none" xmlns="http://www.w3.org/2000/svg">
<g clip-path="url(#clip0_997_6314)">
<path d="M28.36 31H27.64V24.25C27.64 23.759 27.242 23.36 26.75 23.36C26.258 23.36 25.86 23.758 25.86 24.25V28H25.14V23.25C25.14 22.759 24.742 22.36 24.25 22.36C23.758 22.36 23.36 22.758 23.36 23.25V28H22.64V23.25C22.64 22.759 22.242 22.36 21.75 22.36C21.258 22.36 20.86 22.758 20.86 23.25V28H20.14V19.25C20.14 18.759 19.742 18.36 19.25 18.36C18.758 18.36 18.36 18.758 18.36 19.25V31H17.64V19.25C17.64 18.362 18.363 17.64 19.25 17.64C20.137 17.64 20.86 18.363 20.86 19.25V21.909C21.115 21.739 21.421 21.639 21.75 21.639C22.254 21.639 22.704 21.872 23 22.236C23.296 21.873 23.746 21.639 24.25 21.639C25.028 21.639 25.68 22.195 25.828 22.93C26.09 22.747 26.407 22.639 26.75 22.639C27.638 22.639 28.36 23.362 28.36 24.249V31ZM5.36 31H4.64V28.001C4.64 27.802 4.801 27.641 5 27.641H9.999C11.455 27.641 12.64 26.456 12.64 25V24C12.64 23.944 12.653 23.889 12.678 23.839L13.098 23L12.679 22.161C12.628 22.059 12.628 21.94 12.679 21.839L13.098 21L12.679 20.161C12.654 20.111 12.641 20.056 12.641 20V19C12.641 18.801 12.802 18.64 13.001 18.64H14.602C14.976 18.64 15.311 18.447 15.499 18.123C15.686 17.802 15.687 17.417 15.503 17.096L12.688 12.179C12.656 12.125 12.64 12.063 12.64 12V10C12.64 5.236 8.764 1.36 4 1.36V0.639999C9.161 0.639999 13.36 4.839 13.36 10V11.904L16.128 16.738C16.44 17.286 16.438 17.938 16.121 18.484C15.803 19.032 15.234 19.36 14.601 19.36H13.36V19.915L13.822 20.839C13.873 20.941 13.873 21.06 13.822 21.161L13.402 22L13.821 22.839C13.872 22.941 13.872 23.06 13.821 23.161L13.359 24.085V25C13.359 26.854 11.851 28.361 9.998 28.361H5.36V31Z" fill="white"/>
</g>
<defs>
<clipPath id="clip0_997_6314">
<rect width="32" height="32" fill="white"/>
</clipPath>
</defs>
</svg>
