<svg width="31" height="31" viewBox="0 0 31 31" fill="none" xmlns="http://www.w3.org/2000/svg">
<path d="M15.5 1.23999C23.3759 1.23999 29.76 7.62413 29.76 15.5C29.76 23.3759 23.3759 29.76 15.5 29.76C7.62413 29.76 1.23999 23.3759 1.23999 15.5C1.23999 7.62413 7.62413 1.23999 15.5 1.23999ZM20.4191 21.3125C20.6813 20.5077 21.9102 12.4874 22.0621 10.907C22.108 10.4284 21.9567 10.1103 21.6603 9.96835C21.302 9.79599 20.7712 9.88217 20.1556 10.1041C19.3111 10.4086 8.51569 14.9922 7.89197 15.2576C7.30049 15.5087 6.74125 15.7827 6.74125 16.1795C6.74125 16.4585 6.90679 16.6154 7.36311 16.7784C7.83803 16.9477 9.03401 17.3104 9.74019 17.5051C10.4203 17.6929 11.1947 17.5299 11.6287 17.2602C12.0888 16.9744 17.3978 13.4218 17.7791 13.1105C18.1598 12.7993 18.4636 13.1979 18.1523 13.5098C17.8411 13.821 14.1967 17.3581 13.7162 17.8479C13.1328 18.4425 13.547 19.0588 13.9382 19.3056C14.3852 19.587 17.5999 21.7434 18.0842 22.0893C18.5684 22.4353 19.0594 22.5922 19.5089 22.5922C19.9584 22.5922 20.1952 22.0001 20.4191 21.3125Z" fill="white"/>
</svg>
