<svg width="31" height="31" viewBox="0 0 31 31" fill="none" xmlns="http://www.w3.org/2000/svg">
<path d="M15.5 2.90625C8.54486 2.90625 2.90625 8.54486 2.90625 15.5C2.90625 22.4551 8.54486 28.0938 15.5 28.0938C22.4551 28.0938 28.0938 22.4551 28.0938 15.5C28.0938 8.54486 22.4551 2.90625 15.5 2.90625ZM20.5002 20.8281C19.9097 18.9856 18.4382 17.56 16.492 17.3663V20.8281H16.1917C10.8965 20.8281 7.87594 17.1914 7.75 11.1406H10.4029C10.4901 15.5819 12.4455 17.4632 13.9946 17.8512V11.1406H16.4925V14.9711C18.0221 14.8064 19.6293 13.0607 20.1713 11.1406H22.6692C22.2532 13.5068 20.5104 15.252 19.2709 15.9698C20.5099 16.5516 22.4949 18.074 23.25 20.8281H20.5002Z" fill="white"/>
</svg>
