<svg width="21" height="19" viewBox="0 0 21 19" fill="none" xmlns="http://www.w3.org/2000/svg">
<path id="Vector" d="M8.26289 13.0726C7.31764 13.9377 6.37239 14.7822 5.45076 15.6678C4.76545 16.3269 4.15104 16.3681 3.48936 15.6678C3.27668 15.4207 2.9931 15.2147 2.73315 15.0087C2.14237 14.535 2.166 14.0819 2.78042 13.6287C3.86746 12.8049 4.9545 11.9398 6.01791 11.1159C5.92339 10.9511 5.8525 10.7864 5.75797 10.6216C4.5764 10.6216 3.39483 10.6216 2.21326 10.6216C0.370018 10.6216 -0.504343 9.52996 0.299124 8.06759C0.440912 7.79983 1.05533 7.59386 1.45706 7.57326C2.85131 7.51147 4.24556 7.55267 5.66344 7.55267C5.71071 7.44968 5.75797 7.36729 5.82886 7.26431C4.88361 6.41984 3.93835 5.59597 2.9931 4.7515C2.02421 3.88643 2.02421 3.80404 3.30031 2.71241C4.34009 1.80615 4.60003 1.78555 5.49802 2.58883C6.41965 3.4127 7.31764 4.27777 8.21563 5.14284C8.33379 5.08105 8.47558 5.03985 8.59373 4.97806C8.61736 4.42195 8.66463 3.88643 8.68826 3.33032C8.71189 2.85659 8.68826 2.36226 8.71189 1.88854C8.71189 0.261388 9.79893 -0.397711 11.5949 0.240791C11.9258 0.364372 12.1857 0.920486 12.2093 1.29123C12.2802 2.50644 12.233 3.72166 12.233 4.93687C12.3511 4.97806 12.4456 5.01926 12.5638 5.08105C13.4618 4.29837 14.3362 3.49509 15.2814 2.7742C15.6831 2.46525 16.463 1.99152 16.6993 2.1151C17.4319 2.50644 18.0463 3.12435 18.5662 3.74225C18.6843 3.88643 18.3535 4.44254 18.0699 4.66911C17.101 5.51358 16.0612 6.31686 15.0687 7.12013C15.116 7.22312 15.1869 7.3467 15.2341 7.44968C15.8722 7.47028 16.4866 7.51147 17.1247 7.53207C17.6445 7.55266 18.1408 7.53207 18.6607 7.53207C20.5985 7.55266 21.3547 8.45893 20.6694 10.0655C20.5512 10.3126 20.0313 10.5598 19.6768 10.5804C18.5898 10.6422 17.4791 10.601 16.3685 10.601C15.9903 10.601 15.6123 10.6422 14.9506 10.6628C16.1321 11.7338 17.101 12.5989 18.0699 13.4846C18.9443 14.2878 18.8734 14.432 17.6209 15.5648C16.9356 16.1827 16.3685 16.4093 15.565 15.6678C14.6197 14.7822 13.58 13.9583 12.6111 13.0932C12.5165 13.1344 12.3984 13.155 12.3039 13.1962C12.3039 14.3702 12.2566 15.5648 12.3275 16.7389C12.3748 17.6657 11.9967 18.0365 10.886 18.0159C8.78278 17.9953 8.78278 18.0365 8.78278 16.2033C8.78278 15.2147 8.78278 14.2466 8.78278 13.258C8.5701 13.2168 8.42831 13.155 8.26289 13.0726Z" fill="white"/>
</svg>
